<svg width="31" height="31" viewBox="0 0 31 31" fill="none" xmlns="http://www.w3.org/2000/svg"><g clip-path="url(#a)"><path d="M17.82 5.053H3.274c-.795 0-1.477.613-1.477 1.328v18.594c0 .715.682 1.328 1.477 1.328H17.82c.795 0 1.477-.562 1.477-1.328V6.381c-.057-.715-.682-1.328-1.477-1.328Z" stroke="currentColor" stroke-width="2.507" stroke-miterlimit="10" stroke-linecap="round" stroke-linejoin="round"></path><path d="M15.66 8.318H5.427c-.146 0-.244.098-.244.244v3.41c0 .147.098.245.244.245H15.66c.146 0 .243-.098.243-.244V8.562c0-.097-.097-.244-.243-.244Z" fill="currentColor"></path><path fill-rule="evenodd" clip-rule="evenodd" d="M13.814 16.7h1.656a.333.333 0 0 0 .341-.342v-1.657a.333.333 0 0 0-.34-.34h-1.657a.333.333 0 0 0-.341.34v1.657c.048.195.194.341.34.341Zm-4.141 0h1.657a.333.333 0 0 0 .34-.342v-1.657a.333.333 0 0 0-.34-.34H9.673a.333.333 0 0 0-.341.34v1.657c0 .195.146.341.341.341Zm-4.195 0h1.656a.333.333 0 0 0 .341-.342v-1.657a.333.333 0 0 0-.34-.34H5.477a.333.333 0 0 0-.341.34v1.657c0 .195.146.341.34.341Zm8.336 3.41h1.656a.333.333 0 0 0 .341-.341v-1.657a.333.333 0 0 0-.34-.341h-1.657a.333.333 0 0 0-.341.341v1.657c.048.195.194.34.34.34Zm-4.141 0h1.657a.333.333 0 0 0 .34-.341v-1.657a.333.333 0 0 0-.34-.341H9.673a.333.333 0 0 0-.341.341v1.657c0 .195.146.34.341.34Zm-4.195 0h1.656a.333.333 0 0 0 .341-.341v-1.657a.333.333 0 0 0-.34-.341H5.477a.333.333 0 0 0-.341.341v1.657c0 .195.146.34.34.34Zm8.336 3.411h1.656a.333.333 0 0 0 .341-.34v-1.657a.333.333 0 0 0-.34-.341h-1.657a.333.333 0 0 0-.341.34v1.657c.048.195.194.341.34.341Zm-4.141 0h1.657a.333.333 0 0 0 .34-.34v-1.657a.333.333 0 0 0-.34-.341H9.673a.333.333 0 0 0-.341.34v1.657c0 .195.146.341.341.341Zm-4.195 0h1.656a.333.333 0 0 0 .341-.34v-1.657a.333.333 0 0 0-.34-.341H5.477a.333.333 0 0 0-.341.34v1.657c0 .195.146.341.34.341Z" fill="currentColor"></path><path d="M21.797 17.553h6.25v-2.5h-6.25v2.5Z" fill="currentColor"></path><path d="M23.086 12.553h3.77c.675 0 1.19.814 1.19 1.744v6.512c0 .988-.555 1.744-1.19 1.744h-3.81" stroke="currentColor" stroke-width="2.285" stroke-miterlimit="10" stroke-linecap="square" stroke-linejoin="round"></path></g><defs><clipPath id="a"><path fill="#fff" d="M.547.053h30v30h-30z"></path></clipPath></defs></svg>