<svg width="26" height="21" viewBox="0 0 26 21" fill="none" xmlns="http://www.w3.org/2000/svg"><path d="M11.94 16.303h2.5v-1.25h1.25c.687 0 1.25-.562 1.25-1.25v-3.75c0-.687-.563-1.25-1.25-1.25h-3.75v-1.25h5v-2.5h-2.5v-1.25h-2.5v1.25h-1.25c-.688 0-1.25.563-1.25 1.25v3.75c0 .688.562 1.25 1.25 1.25h3.75v1.25h-5v2.5h2.5v1.25ZM23.19.053h-20a2.48 2.48 0 0 0-2.488 2.5l-.013 15c0 1.388 1.113 2.5 2.5 2.5h20a2.49 2.49 0 0 0 2.5-2.5v-15c0-1.387-1.112-2.5-2.5-2.5Zm0 17.5h-20v-15h20v15Z" fill="currentColor"></path></svg>